HIERARCHY
ROOT Hips
{
	OFFSET 0.0000 0.0000 0.0000
	CHANNELS 6 Xposition Yposition Zposition Zrotation Xrotation Yrotation
	JOINT LeftUpperLeg
	{
		OFFSET 8.0000 0.0000 0.0000
		CHANNELS 3 Zrotation Xrotation Yrotation
		JOINT LeftLowerLeg
		{
			OFFSET 0.0000 -42.0000 0.0000
			CHANNELS 3 Zrotation Xrotation Yrotation
			JOINT LeftFoot
			{
				OFFSET 0.0000 -42.0000 0.0000
				CHANNELS 3 Zrotation Xrotation Yrotation
				JOINT LeftToe
				{
					OFFSET 0.0000 -8.0000 10.0000
					CHANNELS 3 Zrotation Xrotation Yrotation
					End Site
					{
						OFFSET 0.0000 5.0000 0.0000
					}
				}
			}
		}
	}
	JOINT RightUpperLeg
	{
		OFFSET -8.0000 0.0000 0.0000
		CHANNELS 3 Zrotation Xrotation Yrotation
		JOINT RightLowerLeg
		{
			OFFSET 0.0000 -42.0000 0.0000
			CHANNELS 3 Zrotation Xrotation Yrotation
			JOINT RightFoot
			{
				OFFSET 0.0000 -42.0000 0.0000
				CHANNELS 3 Zrotation Xrotation Yrotation
				JOINT RightToe
				{
					OFFSET 0.0000 -8.0000 10.0000
					CHANNELS 3 Zrotation Xrotation Yrotation
					End Site
					{
						OFFSET 0.0000 5.0000 0.0000
					}
				}
			}
		}
	}
	JOINT Spine
	{
		OFFSET 0.0000 8.0000 0.0000
		CHANNELS 3 Zrotation Xrotation Yrotation
		JOINT Spine1
		{
			OFFSET 0.0000 9.0000 0.0000
			CHANNELS 3 Zrotation Xrotation Yrotation
			JOINT Spine2
			{
				OFFSET 0.0000 9.0000 0.0000
				CHANNELS 3 Zrotation Xrotation Yrotation
				JOINT Neck
				{
					OFFSET 0.0000 20.0000 0.0000
					CHANNELS 3 Zrotation Xrotation Yrotation
					JOINT Head
					{
						OFFSET 0.0000 10.0000 0.0000
						CHANNELS 3 Zrotation Xrotation Yrotation
						JOINT Jaw
						{
							OFFSET 0.0000 -4.0000 5.0000
							CHANNELS 3 Zrotation Xrotation Yrotation
							End Site
							{
								OFFSET 0.0000 5.0000 0.0000
							}
						}
						JOINT LeftEye
						{
							OFFSET 3.0000 5.0000 7.0000
							CHANNELS 3 Zrotation Xrotation Yrotation
							End Site
							{
								OFFSET 0.0000 5.0000 0.0000
							}
						}
						JOINT RightEye
						{
							OFFSET -3.0000 5.0000 7.0000
							CHANNELS 3 Zrotation Xrotation Yrotation
							End Site
							{
								OFFSET 0.0000 5.0000 0.0000
							}
						}
					}
				}
				JOINT LeftShoulder
				{
					OFFSET 5.0000 18.0000 0.0000
					CHANNELS 3 Zrotation Xrotation Yrotation
					JOINT LeftUpperArm
					{
						OFFSET 15.0000 0.0000 0.0000
						CHANNELS 3 Zrotation Xrotation Yrotation
						JOINT LeftLowerArm
						{
							OFFSET 28.0000 0.0000 0.0000
							CHANNELS 3 Zrotation Xrotation Yrotation
							JOINT LeftHand
							{
								OFFSET 25.0000 0.0000 0.0000
								CHANNELS 3 Zrotation Xrotation Yrotation
								JOINT LeftIndexProximal
								{
									OFFSET 5.0000 -1.0000 1.0000
									CHANNELS 3 Zrotation Xrotation Yrotation
									JOINT LeftIndexIntermediate
									{
										OFFSET 4.0000 0.0000 0.0000
										CHANNELS 3 Zrotation Xrotation Yrotation
										JOINT LeftIndexDistal
										{
											OFFSET 3.0000 0.0000 0.0000
											CHANNELS 3 Zrotation Xrotation Yrotation
											End Site
											{
												OFFSET 0.0000 5.0000 0.0000
											}
										}
									}
								}
								JOINT LeftMiddleProximal
								{
									OFFSET 5.0000 0.0000 0.0000
									CHANNELS 3 Zrotation Xrotation Yrotation
									JOINT LeftMiddleIntermediate
									{
										OFFSET 4.0000 0.0000 0.0000
										CHANNELS 3 Zrotation Xrotation Yrotation
										JOINT LeftMiddleDistal
										{
											OFFSET 3.0000 0.0000 0.0000
											CHANNELS 3 Zrotation Xrotation Yrotation
											End Site
											{
												OFFSET 0.0000 5.0000 0.0000
											}
										}
									}
								}
								JOINT LeftLittleProximal
								{
									OFFSET 5.0000 1.5000 0.0000
									CHANNELS 3 Zrotation Xrotation Yrotation
									JOINT LeftLittleIntermediate
									{
										OFFSET 3.0000 0.0000 0.0000
										CHANNELS 3 Zrotation Xrotation Yrotation
										JOINT LeftLittleDistal
										{
											OFFSET 2.0000 0.0000 0.0000
											CHANNELS 3 Zrotation Xrotation Yrotation
											End Site
											{
												OFFSET 0.0000 5.0000 0.0000
											}
										}
									}
								}
								JOINT LeftRingProximal
								{
									OFFSET 5.0000 0.8000 0.0000
									CHANNELS 3 Zrotation Xrotation Yrotation
									JOINT LeftRingIntermediate
									{
										OFFSET 4.0000 0.0000 0.0000
										CHANNELS 3 Zrotation Xrotation Yrotation
										JOINT LeftRingDistal
										{
											OFFSET 3.0000 0.0000 0.0000
											CHANNELS 3 Zrotation Xrotation Yrotation
											End Site
											{
												OFFSET 0.0000 5.0000 0.0000
											}
										}
									}
								}
								JOINT LeftThumbProximal
								{
									OFFSET 3.0000 -2.0000 2.0000
									CHANNELS 3 Zrotation Xrotation Yrotation
									JOINT LeftThumbIntermediate
									{
										OFFSET 3.0000 0.0000 0.0000
										CHANNELS 3 Zrotation Xrotation Yrotation
										JOINT LeftThumbDistal
										{
											OFFSET 2.5000 0.0000 0.0000
											CHANNELS 3 Zrotation Xrotation Yrotation
											End Site
											{
												OFFSET 0.0000 5.0000 0.0000
											}
										}
									}
								}
							}
						}
					}
				}
				JOINT RightShoulder
				{
					OFFSET -5.0000 18.0000 0.0000
					CHANNELS 3 Zrotation Xrotation Yrotation
					JOINT RightUpperArm
					{
						OFFSET -15.0000 0.0000 0.0000
						CHANNELS 3 Zrotation Xrotation Yrotation
						JOINT RightLowerArm
						{
							OFFSET -28.0000 0.0000 0.0000
							CHANNELS 3 Zrotation Xrotation Yrotation
							JOINT RightHand
							{
								OFFSET -25.0000 0.0000 0.0000
								CHANNELS 3 Zrotation Xrotation Yrotation
								JOINT RightIndexProximal
								{
									OFFSET -5.0000 -1.0000 1.0000
									CHANNELS 3 Zrotation Xrotation Yrotation
									JOINT RightIndexIntermediate
									{
										OFFSET -4.0000 0.0000 0.0000
										CHANNELS 3 Zrotation Xrotation Yrotation
										JOINT RightIndexDistal
										{
											OFFSET -3.0000 0.0000 0.0000
											CHANNELS 3 Zrotation Xrotation Yrotation
											End Site
											{
												OFFSET 0.0000 5.0000 0.0000
											}
										}
									}
								}
								JOINT RightMiddleProximal
								{
									OFFSET -5.0000 0.0000 0.0000
									CHANNELS 3 Zrotation Xrotation Yrotation
									JOINT RightMiddleIntermediate
									{
										OFFSET -4.0000 0.0000 0.0000
										CHANNELS 3 Zrotation Xrotation Yrotation
										JOINT RightMiddleDistal
										{
											OFFSET -3.0000 0.0000 0.0000
											CHANNELS 3 Zrotation Xrotation Yrotation
											End Site
											{
												OFFSET 0.0000 5.0000 0.0000
											}
										}
									}
								}
								JOINT RightLittleProximal
								{
									OFFSET -5.0000 1.5000 0.0000
									CHANNELS 3 Zrotation Xrotation Yrotation
									JOINT RightLittleIntermediate
									{
										OFFSET -3.0000 0.0000 0.0000
										CHANNELS 3 Zrotation Xrotation Yrotation
										JOINT RightLittleDistal
										{
											OFFSET -2.0000 0.0000 0.0000
											CHANNELS 3 Zrotation Xrotation Yrotation
											End Site
											{
												OFFSET 0.0000 5.0000 0.0000
											}
										}
									}
								}
								JOINT RightRingProximal
								{
									OFFSET -5.0000 0.8000 0.0000
									CHANNELS 3 Zrotation Xrotation Yrotation
									JOINT RightRingIntermediate
									{
										OFFSET -4.0000 0.0000 0.0000
										CHANNELS 3 Zrotation Xrotation Yrotation
										JOINT RightRingDistal
										{
											OFFSET -3.0000 0.0000 0.0000
											CHANNELS 3 Zrotation Xrotation Yrotation
											End Site
											{
												OFFSET 0.0000 5.0000 0.0000
											}
										}
									}
								}
								JOINT RightThumbProximal
								{
									OFFSET -3.0000 -2.0000 2.0000
									CHANNELS 3 Zrotation Xrotation Yrotation
									JOINT RightThumbIntermediate
									{
										OFFSET -3.0000 0.0000 0.0000
										CHANNELS 3 Zrotation Xrotation Yrotation
										JOINT RightThumbDistal
										{
											OFFSET -2.5000 0.0000 0.0000
											CHANNELS 3 Zrotation Xrotation Yrotation
											End Site
											{
												OFFSET 0.0000 5.0000 0.0000
											}
										}
									}
								}
							}
						}
					}
				}
			}
		}
	}
}
MOTION
Frames: 6
Frame Time: 0.033333
26.111231 198.196701 5.966784 119.457017 88.085004 63.403097 9.743791 -1.304979 -0.834140 0.369748 19.181550 10.656108 -10.181945 -6.502308 -3.056754 1.255259 -15.011100 -13.489842 2.265959 -24.108050 0.541978 -2.477713 8.195942 -2.203282 -13.994336 -1.640436 8.594116 16.946951 -3.060916 -11.832506 -4.859200 10.070946 4.612627 -2.933999 -4.096956 -1.452113 0.898743 8.930059 3.533249 -3.378573 18.290180 -4.213608 14.576731 31.575069 -5.873128 -0.000000 0.000000 0.000000 -0.000000 0.000000 0.000000 -0.000000 0.000000 0.000000 24.639421 -1.159454 -13.084166 54.428474 15.197772 16.666572 -11.010933 17.767612 32.547532 0.644844 5.613890 -1.358687 -0.000000 0.000000 0.000000 -0.000000 0.000000 0.000000 -0.000000 0.000000 0.000000 -0.000000 0.000000 0.000000 -0.000000 0.000000 0.000000 -0.000000 0.000000 0.000000 -0.000000 0.000000 0.000000 -0.000000 0.000000 0.000000 -0.000000 0.000000 0.000000 -0.000000 0.000000 0.000000 -0.000000 0.000000 0.000000 -0.000000 0.000000 0.000000 -0.000000 0.000000 0.000000 -0.000000 0.000000 0.000000 -0.000000 0.000000 0.000000 -28.750063 -5.037554 8.675600 -50.971562 19.541548 -7.542326 -1.816108 -5.179551 -19.002450 5.030151 -2.064867 -1.092975 -0.000000 0.000000 0.000000 -0.000000 0.000000 0.000000 -0.000000 0.000000 0.000000 -0.000000 0.000000 0.000000 -0.000000 0.000000 0.000000 -0.000000 0.000000 0.000000 -0.000000 0.000000 0.000000 -0.000000 0.000000 0.000000 -0.000000 0.000000 0.000000 -0.000000 0.000000 0.000000 -0.000000 0.000000 0.000000 -0.000000 0.000000 0.000000 -0.000000 0.000000 0.000000 -0.000000 0.000000 0.000000 -0.000000 0.000000 0.000000
26.371277 200.642105 6.049531 101.625836 88.282796 80.615118 9.234143 -3.390076 -0.354269 1.588249 24.403922 9.780452 -7.838723 -3.658417 -1.501774 0.640478 -17.007346 -13.283374 2.117264 -23.848851 0.322787 -2.394937 10.341390 -2.228912 -12.781991 -1.867605 8.671006 16.646938 -3.377723 -11.583562 -5.375613 10.043502 4.462521 -3.007559 -3.986547 -1.409962 1.035226 8.779280 3.349116 -3.283395 18.076944 -3.710974 14.716227 31.166007 -5.854116 -0.000000 0.000000 0.000000 -0.000000 0.000000 0.000000 -0.000000 0.000000 0.000000 24.554242 -0.976258 -12.933904 54.313698 15.244724 15.829769 -11.191882 17.536023 32.485787 1.000302 5.521076 -1.293250 -0.000000 0.000000 0.000000 -0.000000 0.000000 0.000000 -0.000000 0.000000 0.000000 -0.000000 0.000000 0.000000 -0.000000 0.000000 0.000000 -0.000000 0.000000 0.000000 -0.000000 0.000000 0.000000 -0.000000 0.000000 0.000000 -0.000000 0.000000 0.000000 -0.000000 0.000000 0.000000 -0.000000 0.000000 0.000000 -0.000000 0.000000 0.000000 -0.000000 0.000000 0.000000 -0.000000 0.000000 0.000000 -0.000000 0.000000 0.000000 -28.418890 -4.737223 8.355063 -50.137510 19.258104 -7.762295 -2.002393 -5.139767 -19.962243 4.816396 -2.834697 -1.101775 -0.000000 0.000000 0.000000 -0.000000 0.000000 0.000000 -0.000000 0.000000 0.000000 -0.000000 0.000000 0.000000 -0.000000 0.000000 0.000000 -0.000000 0.000000 0.000000 -0.000000 0.000000 0.000000 -0.000000 0.000000 0.000000 -0.000000 0.000000 0.000000 -0.000000 0.000000 0.000000 -0.000000 0.000000 0.000000 -0.000000 0.000000 0.000000 -0.000000 0.000000 0.000000 -0.000000 0.000000 0.000000 -0.000000 0.000000 0.000000
26.619652 203.128098 6.234695 81.876814 88.355050 99.472992 8.306039 -6.575463 -0.039977 3.437630 31.056480 8.252473 -4.921901 0.632840 0.597453 -0.374141 -19.362740 -13.133987 1.963595 -23.573725 0.337522 -2.369031 12.684464 -2.001673 -11.142085 -2.140028 8.847637 16.134604 -3.738551 -11.267715 -5.876956 10.529857 4.302689 -3.084457 -3.933762 -1.227032 1.081149 8.542742 3.286325 -3.093921 17.629034 -3.227232 14.507788 30.386524 -5.572929 -0.000000 0.000000 0.000000 -0.000000 0.000000 0.000000 -0.000000 0.000000 0.000000 24.395557 -0.764421 -12.524702 53.915300 15.327014 15.212694 -11.158262 17.332274 32.512764 1.216705 5.642966 -1.373971 -0.000000 0.000000 0.000000 -0.000000 0.000000 0.000000 -0.000000 0.000000 0.000000 -0.000000 0.000000 0.000000 -0.000000 0.000000 0.000000 -0.000000 0.000000 0.000000 -0.000000 0.000000 0.000000 -0.000000 0.000000 0.000000 -0.000000 0.000000 0.000000 -0.000000 0.000000 0.000000 -0.000000 0.000000 0.000000 -0.000000 0.000000 0.000000 -0.000000 0.000000 0.000000 -0.000000 0.000000 0.000000 -0.000000 0.000000 0.000000 -27.961342 -4.315928 7.823522 -49.501246 18.808961 -8.061898 -2.341559 -5.235097 -20.769481 4.647580 -3.622358 -0.964380 -0.000000 0.000000 0.000000 -0.000000 0.000000 0.000000 -0.000000 0.000000 0.000000 -0.000000 0.000000 0.000000 -0.000000 0.000000 0.000000 -0.000000 0.000000 0.000000 -0.000000 0.000000 0.000000 -0.000000 0.000000 0.000000 -0.000000 0.000000 0.000000 -0.000000 0.000000 0.000000 -0.000000 0.000000 0.000000 -0.000000 0.000000 0.000000 -0.000000 0.000000 0.000000 -0.000000 0.000000 0.000000 -0.000000 0.000000 0.000000
26.825603 205.525635 6.478290 65.716788 88.368021 114.437471 7.128629 -10.721064 0.543947 5.563760 38.594720 6.327111 -2.207569 5.488849 2.612005 -1.443450 -21.631996 -12.986486 1.810460 -22.781570 0.653592 -2.408768 14.380724 -1.938769 -9.672852 -2.145996 9.085469 15.932791 -4.250180 -10.949753 -6.239144 11.239139 3.983315 -3.148810 -4.006832 -0.861047 0.959215 8.357191 3.411301 -3.010721 16.885587 -2.838900 13.796781 29.499353 -5.110353 -0.000000 0.000000 0.000000 -0.000000 0.000000 0.000000 -0.000000 0.000000 0.000000 24.377429 -0.518457 -11.917513 53.278331 15.028314 14.917500 -10.634914 16.924611 32.244027 1.116231 5.691042 -1.669369 -0.000000 0.000000 0.000000 -0.000000 0.000000 0.000000 -0.000000 0.000000 0.000000 -0.000000 0.000000 0.000000 -0.000000 0.000000 0.000000 -0.000000 0.000000 0.000000 -0.000000 0.000000 0.000000 -0.000000 0.000000 0.000000 -0.000000 0.000000 0.000000 -0.000000 0.000000 0.000000 -0.000000 0.000000 0.000000 -0.000000 0.000000 0.000000 -0.000000 0.000000 0.000000 -0.000000 0.000000 0.000000 -0.000000 0.000000 0.000000 -27.562805 -3.920648 7.201095 -48.687664 18.171217 -8.164713 -2.561014 -5.164360 -21.275631 4.634490 -4.298900 -0.671889 -0.000000 0.000000 0.000000 -0.000000 0.000000 0.000000 -0.000000 0.000000 0.000000 -0.000000 0.000000 0.000000 -0.000000 0.000000 0.000000 -0.000000 0.000000 0.000000 -0.000000 0.000000 0.000000 -0.000000 0.000000 0.000000 -0.000000 0.000000 0.000000 -0.000000 0.000000 0.000000 -0.000000 0.000000 0.000000 -0.000000 0.000000 0.000000 -0.000000 0.000000 0.000000 -0.000000 0.000000 0.000000 -0.000000 0.000000 0.000000
26.903221 210.961823 6.727080 43.849319 87.404698 136.537383 6.876221 -17.766882 1.696549 9.592157 47.876317 2.768217 -1.972676 6.075942 3.228540 -2.453594 -24.447024 -14.221682 2.210002 -25.122273 -0.559015 -3.891514 17.930023 -3.974027 -5.745034 -2.729621 8.870015 14.009312 -3.246674 -9.923281 -7.423679 11.661535 4.376896 -3.279729 -5.540352 -1.148911 1.200274 8.860452 4.531314 -4.543194 17.978249 -1.334681 15.512175 31.727833 -6.672597 -0.000000 0.000000 0.000000 -0.000000 0.000000 0.000000 -0.000000 0.000000 0.000000 25.498917 -0.215671 -14.763232 55.223854 16.245263 14.886948 -12.482673 20.149022 30.664154 1.711686 6.146505 -2.250254 -0.000000 0.000000 0.000000 -0.000000 0.000000 0.000000 -0.000000 0.000000 0.000000 -0.000000 0.000000 0.000000 -0.000000 0.000000 0.000000 -0.000000 0.000000 0.000000 -0.000000 0.000000 0.000000 -0.000000 0.000000 0.000000 -0.000000 0.000000 0.000000 -0.000000 0.000000 0.000000 -0.000000 0.000000 0.000000 -0.000000 0.000000 0.000000 -0.000000 0.000000 0.000000 -0.000000 0.000000 0.000000 -0.000000 0.000000 0.000000 -27.138676 -4.631145 10.270963 -51.382066 19.519038 -7.521814 -2.431220 -4.544884 -19.469042 3.994433 -5.683865 -0.257725 -0.000000 0.000000 0.000000 -0.000000 0.000000 0.000000 -0.000000 0.000000 0.000000 -0.000000 0.000000 0.000000 -0.000000 0.000000 0.000000 -0.000000 0.000000 0.000000 -0.000000 0.000000 0.000000 -0.000000 0.000000 0.000000 -0.000000 0.000000 0.000000 -0.000000 0.000000 0.000000 -0.000000 0.000000 0.000000 -0.000000 0.000000 0.000000 -0.000000 0.000000 0.000000 -0.000000 0.000000 0.000000 -0.000000 0.000000 0.000000
27.111706 213.313797 6.613205 40.617547 87.425438 139.300273 4.827744 -21.621686 1.922136 11.710704 51.169810 -0.094560 -2.015523 5.474739 1.687544 -4.097638 -24.430543 -15.174978 2.870948 -24.609389 0.167087 -4.923071 20.131139 -3.763316 -3.188854 -4.206996 9.017665 11.781130 -2.670074 -8.328174 -7.256559 12.173391 3.671916 -3.353352 -5.794423 -1.197653 1.152135 9.192467 4.482475 -4.811332 17.297281 -1.278702 15.320649 31.095153 -6.182315 -0.000000 0.000000 0.000000 -0.000000 0.000000 0.000000 -0.000000 0.000000 0.000000 25.489293 0.018925 -14.776411 55.084954 16.018632 14.956150 -11.590578 19.414084 28.825728 2.336588 5.230656 -3.089374 -0.000000 0.000000 0.000000 -0.000000 0.000000 0.000000 -0.000000 0.000000 0.000000 -0.000000 0.000000 0.000000 -0.000000 0.000000 0.000000 -0.000000 0.000000 0.000000 -0.000000 0.000000 0.000000 -0.000000 0.000000 0.000000 -0.000000 0.000000 0.000000 -0.000000 0.000000 0.000000 -0.000000 0.000000 0.000000 -0.000000 0.000000 0.000000 -0.000000 0.000000 0.000000 -0.000000 0.000000 0.000000 -0.000000 0.000000 0.000000 -26.827709 -4.466638 10.147903 -50.527937 19.689291 -8.527092 -2.706611 -3.824539 -19.916971 3.209803 -6.875453 0.338186 -0.000000 0.000000 0.000000 -0.000000 0.000000 0.000000 -0.000000 0.000000 0.000000 -0.000000 0.000000 0.000000 -0.000000 0.000000 0.000000 -0.000000 0.000000 0.000000 -0.000000 0.000000 0.000000 -0.000000 0.000000 0.000000 -0.000000 0.000000 0.000000 -0.000000 0.000000 0.000000 -0.000000 0.000000 0.000000 -0.000000 0.000000 0.000000 -0.000000 0.000000 0.000000 -0.000000 0.000000 0.000000 -0.000000 0.000000 0.000000
